<svg width="101" height="174" viewBox="0 0 101 174" fill="none" xmlns="http://www.w3.org/2000/svg">
<path d="M63.37 50.6201L63.695 50.8956C63.815 51.0008 63.95 51.101 64.08 51.2012C64.34 51.4065 64.58 51.6119 64.88 51.8072C65.42 52.2029 65.995 52.5636 66.57 52.9242C67.7299 53.6404 68.9455 54.2619 70.205 54.7825C71.4591 55.3179 72.751 55.7599 74.07 56.1049C74.4 56.1951 74.74 56.2552 75.07 56.3303L75.57 56.4405C75.675 56.4405 75.57 56.4405 75.57 56.4655C75.5018 56.4816 75.4373 56.5105 75.38 56.5507C75.335 56.5958 75.335 56.5958 75.355 56.5857C75.4538 56.4389 75.5313 56.2787 75.585 56.1099C75.7624 55.532 75.8715 54.9352 75.91 54.3317C75.97 53.6756 75.99 52.9843 75.985 52.2881C75.985 50.8906 75.875 49.4631 75.765 48.0305C75.655 46.5979 75.48 45.1604 75.295 43.7178C75.11 42.2752 74.905 40.8327 74.69 39.4101L76.57 38.9794C77.398 41.8382 78.0657 44.7413 78.57 47.6749C78.8319 49.1667 79.0138 50.6716 79.115 52.1829C79.1737 52.9628 79.1921 53.7453 79.17 54.5271C79.163 55.3901 79.0539 56.2493 78.845 57.0866C78.7038 57.6221 78.4739 58.13 78.165 58.5893C77.9489 58.9024 77.6798 59.1753 77.37 59.3958C77.0142 59.6504 76.6058 59.8216 76.175 59.8967C75.8043 59.9592 75.4257 59.9592 75.055 59.8967L74.48 59.8015C74.095 59.7364 73.705 59.6863 73.325 59.6011C71.7918 59.2961 70.2866 58.8639 68.825 58.3088C67.3638 57.7472 65.9508 57.067 64.6 56.2752C63.925 55.8695 63.265 55.4437 62.625 54.9779C62.305 54.7475 61.99 54.477 61.675 54.2566C61.52 54.1264 61.365 54.0011 61.21 53.8609C61.055 53.7206 60.91 53.6054 60.71 53.4151L63.37 50.6201Z" fill="#E4897B"/>
<path d="M57.935 48.3412C63.435 47.5949 67.855 52.0378 67.855 52.0378L62.825 59.8117C62.825 59.8117 57.435 56.3555 56.485 54.0013C55.505 51.5519 55.12 48.7069 57.935 48.3412Z" fill="#407BFF"/>
<path opacity="0.6" d="M57.935 48.3412C63.435 47.5949 67.855 52.0378 67.855 52.0378L62.825 59.8117C62.825 59.8117 57.435 56.3555 56.485 54.0013C55.505 51.5519 55.12 48.7069 57.935 48.3412Z" fill="#FAFAFA"/>
<path d="M74.735 40.0865L72.91 36.42L77.695 36.3799C77.695 36.3799 77.79 38.9394 76.58 40.387L74.735 40.0865Z" fill="#E4897B"/>
<path d="M73.76 32.4779L77.32 33.114L77.695 36.3799L72.91 36.4199L73.76 32.4779Z" fill="#E4897B"/>
<path d="M38.485 169.357L42.965 169.788L46.065 159.249L41.585 158.813L38.485 169.357Z" fill="#E4897B"/>
<path d="M10 153.769L13.32 156.895L20.49 149.001L17.17 145.875L10 153.769Z" fill="#E4897B"/>
<path d="M14.855 155.397L12.355 150.889C12.3125 150.812 12.2436 150.752 12.1609 150.722C12.0782 150.692 11.9873 150.692 11.905 150.724L8.06 152.186C7.9648 152.227 7.87922 152.288 7.80881 152.364C7.73841 152.44 7.68474 152.53 7.65128 152.628C7.61781 152.726 7.60531 152.83 7.61456 152.934C7.62382 153.037 7.65463 153.137 7.705 153.228C8.6 154.781 9.115 155.487 10.205 157.466C10.88 158.688 12.205 161.473 13.13 163.166C14.055 164.859 15.77 164.012 15.535 163.231C14.465 159.725 14.67 157.756 14.97 156.218C15.0302 155.94 14.9894 155.648 14.855 155.397Z" fill="#263238"/>
<path d="M43.49 168.42H38.06C37.9628 168.421 37.8687 168.454 37.792 168.514C37.7152 168.574 37.6601 168.657 37.635 168.751L36.45 173.053C36.4221 173.155 36.4182 173.262 36.4386 173.366C36.4591 173.47 36.5033 173.567 36.5678 173.651C36.6323 173.734 36.7153 173.802 36.8103 173.847C36.9052 173.893 37.0096 173.916 37.115 173.915C39.03 173.915 39.935 173.915 42.325 173.915H49.62C51.62 173.915 52.02 171.911 51.2 171.721C47.52 170.91 45.395 169.783 44.26 168.716C44.0496 168.524 43.7747 168.418 43.49 168.42Z" fill="#263238"/>
<path d="M46.065 159.249L44.465 164.683H39.855L41.58 158.818L46.065 159.249Z" fill="#CE6F64"/>
<path d="M17.165 145.88L20.49 149.001L16.79 153.068L13.47 149.947L17.165 145.88Z" fill="#CE6F64"/>
<path d="M63.355 45.2306C63.32 41.5891 60.03 40.3168 60.03 40.3168C60.03 40.3168 64.145 32.5129 62.03 27.3337C59.915 22.1544 52.945 21.2428 50.735 23.6621C46.85 23.4968 45.615 29.0868 45.615 29.0868C45.615 29.0868 42.365 29.6328 41.49 32.002C40.615 34.3712 43.28 37.041 43.28 37.041C43.28 37.041 39.57 37.5419 38.205 40.402C36.84 43.2621 37.68 47.0588 41.78 50.3347C47.74 55.0932 58.695 49.1225 58.695 49.1225C58.695 49.1225 63.395 49.418 63.355 45.2306Z" fill="#263238"/>
<path d="M62.65 48.852C62.65 48.852 64.65 49.7285 57.97 76.1607L39.47 74.5528C40.43 67.0394 40.845 62.3711 38.58 46.5629C41.2194 46.2502 43.8782 46.1313 46.535 46.2073C49.3519 46.2498 52.1623 46.4925 54.945 46.9336C57.5437 47.4437 60.1153 48.084 62.65 48.852Z" fill="#407BFF"/>
<path opacity="0.6" d="M62.65 48.852C62.65 48.852 64.65 49.7285 57.97 76.1607L39.47 74.5528C40.43 67.0394 40.845 62.3711 38.58 46.5629C41.2194 46.2502 43.8782 46.1313 46.535 46.2073C49.3519 46.2498 52.1623 46.4925 54.945 46.9336C57.5437 47.4437 60.1153 48.084 62.65 48.852Z" fill="#FAFAFA"/>
<path d="M57.855 47.5597C56.895 47.3293 55.855 47.1089 54.905 46.9336C52.1225 46.4909 49.3121 46.2465 46.495 46.2023C45.53 46.1673 44.565 46.1673 43.66 46.2023L44.28 47.3844C44.39 47.5948 47.03 52.5286 52.045 55.3286L53.425 56.1L54.71 55.1833C57.95 52.8642 58.43 49.8488 57.855 47.5597Z" fill="#FAFAFA"/>
<path d="M48.15 36.7905C48.445 39.5504 48.545 44.5644 46.5 46.2073C46.5 46.2073 48.84 50.6602 53.27 53.1297C57.19 50.3347 54.91 46.9336 54.91 46.9336C51.955 45.9318 52.225 43.7179 52.91 41.6542L48.15 36.7905Z" fill="#E4897B"/>
<path d="M50.095 38.774L52.925 41.6542C52.7526 42.1328 52.6221 42.6255 52.535 43.1268C51.4 42.8613 49.75 41.6742 49.73 40.452C49.7527 39.8756 49.8762 39.3077 50.095 38.774Z" fill="#CE6F64"/>
<path d="M48.03 30.5294C47.485 35.0374 47.16 36.9458 48.995 39.6557C51.755 43.7229 57.415 43.4023 59.29 39.1548C60.98 35.3179 61.585 28.5759 57.54 25.9963C56.6531 25.4245 55.6352 25.0889 54.5826 25.0215C53.5301 24.954 52.4778 25.1569 51.5254 25.6108C50.573 26.0648 49.752 26.7548 49.1404 27.6156C48.5287 28.4763 48.1465 29.4793 48.03 30.5294Z" fill="#E4897B"/>
<path d="M51.52 24.9745C54.995 25.8761 51.56 36.465 46.02 33.3945C46.02 33.3945 46.27 28.9215 47.81 27.0231C48.7413 25.8921 50.0681 25.1595 51.52 24.9745Z" fill="#263238"/>
<path d="M51.15 25.5606C52.65 28.0049 63.775 32.6382 60.035 27.3788C56.295 22.1195 51.15 25.5606 51.15 25.5606Z" fill="#263238"/>
<path d="M46.6 34.4313C46.5376 35.3095 46.8232 36.177 47.395 36.8456C48.165 37.7222 49.18 37.1913 49.5 36.1294C49.785 35.1777 49.73 33.5748 48.705 33.0839C48.4788 32.984 48.2314 32.9416 47.9849 32.9606C47.7384 32.9795 47.5004 33.0592 47.2921 33.1926C47.0838 33.3259 46.9116 33.5088 46.7908 33.7249C46.6701 33.9411 46.6045 34.1837 46.6 34.4313Z" fill="#E4897B"/>
<path d="M57.95 76.1607C57.95 76.1607 64.215 103.93 60.035 123.505C57.235 136.618 47.13 163.106 47.13 163.106L39.23 162.905C39.23 162.905 46.875 135.106 48.46 124.176C51.165 105.473 44.39 74.9836 44.39 74.9836L57.95 76.1607Z" fill="#263238"/>
<path d="M50.725 81.7657L46.775 88.0069C47.9655 95.4076 48.7202 102.872 49.035 110.362C54.59 100.399 51.96 87.0401 50.725 81.7657Z" fill="#263238"/>
<path d="M47.78 163.516L38.02 163.266L38.585 160.266L49.24 160.772L47.78 163.516Z" fill="#407BFF"/>
<path opacity="0.6" d="M47.78 163.516L38.02 163.266L38.585 160.266L49.24 160.772L47.78 163.516Z" fill="#FAFAFA"/>
<path d="M53.9 75.8602C53.9 75.8602 50.225 105.313 42.255 121.391C35.82 134.359 18.65 152.892 18.65 152.892L14.26 148.359C14.26 148.359 25.86 128.269 30.645 119.638C42.375 98.4855 32.785 82.3467 39.435 74.5579L53.9 75.8602Z" fill="#263238"/>
<path d="M19.09 153.473L13.42 147.939L15.305 145.374L21.48 151.77L19.09 153.473Z" fill="#407BFF"/>
<path opacity="0.6" d="M19.09 153.473L13.42 147.939L15.305 145.374L21.48 151.77L19.09 153.473Z" fill="#FAFAFA"/>
<path d="M39.245 73.4409L38.27 75.0287C38.19 75.154 38.335 75.2992 38.545 75.3143L57.97 76.9973C58.14 76.9973 58.285 76.9422 58.305 76.837L58.615 75.194C58.615 75.0788 58.5 74.9686 58.315 74.9536L39.56 73.3257C39.502 73.316 39.4426 73.3215 39.3873 73.3417C39.3321 73.3619 39.2831 73.3961 39.245 73.4409Z" fill="#407BFF"/>
<path opacity="0.3" d="M39.245 73.4409L38.27 75.0287C38.19 75.154 38.335 75.2992 38.545 75.3143L57.97 76.9973C58.14 76.9973 58.285 76.9422 58.305 76.837L58.615 75.194C58.615 75.0788 58.5 74.9686 58.315 74.9536L39.56 73.3257C39.502 73.316 39.4426 73.3215 39.3873 73.3417C39.3321 73.3619 39.2831 73.3961 39.245 73.4409Z" fill="black"/>
<path d="M41.585 75.755L41.085 75.71C40.985 75.71 40.915 75.6448 40.925 75.5797L41.35 73.4459C41.35 73.3808 41.455 73.3357 41.555 73.3458L42.055 73.3908C42.155 73.3908 42.225 73.4559 42.215 73.5211L41.795 75.6549C41.775 75.725 41.685 75.755 41.585 75.755Z" fill="#263238"/>
<path d="M56.545 77.0573L56.045 77.0122C55.945 77.0122 55.875 76.9471 55.885 76.882L56.31 74.7432C56.31 74.6831 56.415 74.638 56.515 74.648L57.015 74.6931C57.115 74.6931 57.185 74.7582 57.175 74.8183L56.755 76.9571C56.735 77.0222 56.65 77.0623 56.545 77.0573Z" fill="#263238"/>
<path d="M49.065 76.4062L48.565 76.3661C48.465 76.3661 48.395 76.296 48.405 76.2359L48.83 74.0971C48.83 74.0369 48.935 73.9919 49.035 74.0019L49.535 74.042C49.635 74.042 49.705 74.1121 49.695 74.1722L49.275 76.311C49.255 76.3711 49.15 76.4162 49.065 76.4062Z" fill="#263238"/>
<path d="M54.565 33.0188C54.5 33.3795 54.64 33.71 54.875 33.7551C55.11 33.8002 55.375 33.5397 55.425 33.1741C55.475 32.8084 55.355 32.4779 55.115 32.4378C54.875 32.3977 54.65 32.6782 54.565 33.0188Z" fill="#263238"/>
<path d="M58.65 33.7702C58.585 34.1309 58.725 34.4615 58.96 34.5065C59.195 34.5516 59.46 34.2912 59.51 33.9255C59.56 33.5599 59.44 33.2293 59.2 33.1892C58.96 33.1491 58.74 33.4046 58.65 33.7702Z" fill="#263238"/>
<path d="M59.115 33.1791L60.03 33.089C60.03 33.089 59.46 33.68 59.115 33.1791Z" fill="#263238"/>
<path d="M57.47 34.1809C57.6448 35.0698 57.9392 35.9308 58.345 36.7405C58.1352 36.8385 57.9065 36.8893 57.675 36.8893C57.4435 36.8893 57.2148 36.8385 57.005 36.7405L57.47 34.1809Z" fill="#DE5753"/>
<path d="M55.485 37.9425C54.9971 37.8668 54.5345 37.6749 54.136 37.3829C53.7375 37.0909 53.4148 36.7074 53.195 36.2646C53.1867 36.2426 53.1873 36.2183 53.1967 36.1968C53.206 36.1753 53.2233 36.1583 53.245 36.1493C53.2555 36.1444 53.2668 36.1417 53.2784 36.1413C53.2899 36.1409 53.3014 36.1429 53.3122 36.1471C53.3229 36.1513 53.3327 36.1577 53.341 36.1658C53.3492 36.174 53.3557 36.1837 53.36 36.1944C53.5707 36.6072 53.8757 36.9644 54.2501 37.2368C54.6246 37.5092 55.058 37.6893 55.515 37.7622C55.5389 37.7622 55.5618 37.7717 55.5786 37.7886C55.5955 37.8055 55.605 37.8285 55.605 37.8524C55.605 37.8763 55.5955 37.8992 55.5786 37.9161C55.5618 37.933 55.5389 37.9425 55.515 37.9425H55.485Z" fill="#263238"/>
<path d="M53.59 30.1737C53.5518 30.1745 53.5143 30.163 53.4831 30.141C53.4518 30.1189 53.4284 30.0875 53.4161 30.0513C53.4039 30.015 53.4035 29.9758 53.4149 29.9392C53.4264 29.9027 53.4492 29.8708 53.48 29.8482C53.7434 29.6356 54.054 29.4896 54.3855 29.4225C54.7171 29.3554 55.0599 29.3691 55.385 29.4625C55.4073 29.4703 55.4279 29.4825 55.4455 29.4984C55.4632 29.5142 55.4775 29.5334 55.4877 29.5548C55.498 29.5762 55.5039 29.5994 55.5051 29.6231C55.5064 29.6468 55.5029 29.6705 55.495 29.6929C55.4872 29.7153 55.475 29.7359 55.4592 29.7535C55.4433 29.7712 55.4242 29.7856 55.4028 29.7958C55.3815 29.806 55.3583 29.812 55.3346 29.8132C55.311 29.8144 55.2873 29.811 55.265 29.8031C54.9967 29.7292 54.7147 29.7207 54.4425 29.7782C54.1702 29.8357 53.9157 29.9576 53.7 30.1337C53.6681 30.1577 53.6298 30.1717 53.59 30.1737Z" fill="#263238"/>
<path d="M60.99 32.3877C60.9634 32.3876 60.9371 32.3817 60.9129 32.3705C60.8887 32.3592 60.8673 32.3429 60.85 32.3226C60.6793 32.1019 60.459 31.9248 60.207 31.8055C59.9551 31.6863 59.6786 31.6283 59.4 31.6364C59.3525 31.6407 59.3051 31.6264 59.2678 31.5965C59.2306 31.5666 59.2063 31.5235 59.2 31.4761C59.1972 31.4527 59.1992 31.4289 59.2058 31.4063C59.2124 31.3836 59.2236 31.3625 59.2385 31.3443C59.2534 31.3261 59.2719 31.311 59.2928 31.3001C59.3137 31.2892 59.3365 31.2826 59.36 31.2807C59.6985 31.2633 60.0361 31.3279 60.3442 31.4692C60.6524 31.6105 60.922 31.8242 61.13 32.0922C61.1627 32.1266 61.1809 32.1724 61.1809 32.2199C61.1809 32.2675 61.1627 32.3132 61.13 32.3476C61.09 32.3781 61.04 32.3925 60.99 32.3877Z" fill="#263238"/>
<path d="M39.945 53.2148C39.193 54.7095 38.3583 56.161 37.445 57.5626C36.545 58.9451 35.595 60.2975 34.57 61.5998C33.5343 62.9068 32.4241 64.1527 31.245 65.3314C30.635 65.9075 30.04 66.4935 29.385 67.0345L28.885 67.4452L28.765 67.5454L28.605 67.6706C28.4995 67.7568 28.3893 67.8371 28.275 67.911C27.8204 68.2231 27.326 68.4724 26.805 68.6524C25.8238 68.9729 24.7872 69.0872 23.76 68.988C22.8398 68.8958 21.9336 68.6957 21.06 68.3919C19.4416 67.8262 17.8985 67.0642 16.465 66.1229C13.7069 64.3305 11.1664 62.2226 8.89499 59.8417L10.225 58.4442C11.42 59.4059 12.68 60.3626 13.97 61.2291C15.2335 62.1158 16.5492 62.9254 17.91 63.6535C19.2055 64.3664 20.5733 64.939 21.99 65.3615C23.34 65.7372 24.695 65.8023 25.63 65.4116C26.1583 65.1815 26.6307 64.8398 27.015 64.4098C27.57 63.9089 28.085 63.3529 28.61 62.812C29.635 61.695 30.585 60.4978 31.52 59.3057C32.455 58.1136 33.3 56.8012 34.12 55.4989C34.535 54.8478 34.93 54.1866 35.32 53.5254C35.71 52.8642 36.085 52.168 36.41 51.5469L39.945 53.2148Z" fill="#E4897B"/>
<path d="M11.49 59.0402L9.71 55.3536L6.75 59.1203C6.75 59.1203 8.71 60.7583 10.615 60.6982L11.49 59.0402Z" fill="#E4897B"/>
<path d="M7.76499 54.2767L6.09 57.4875L6.74999 59.1204L9.70999 55.3537L7.76499 54.2767Z" fill="#E4897B"/>
<path d="M38.54 46.5629C36.27 46.9636 33.085 53.4903 33.085 53.4903L39.32 59.1353C39.32 59.1353 43.36 53.7006 43.12 50.7354C42.915 48.2059 41.43 46.052 38.54 46.5629Z" fill="#407BFF"/>
<path opacity="0.6" d="M38.54 46.5629C36.27 46.9636 33.085 53.4903 33.085 53.4903L39.32 59.1353C39.32 59.1353 43.36 53.7006 43.12 50.7354C42.915 48.2059 41.43 46.052 38.54 46.5629Z" fill="#FAFAFA"/>
<path d="M15.73 157.816C15.6703 157.817 15.6111 157.807 15.555 157.786C15.01 157.606 14.655 156.599 14.49 156.013C14.4851 155.996 14.4853 155.978 14.4907 155.961C14.496 155.944 14.5062 155.929 14.52 155.918C14.5352 155.909 14.5524 155.904 14.57 155.904C14.5876 155.904 14.6048 155.909 14.62 155.918C14.785 156.003 16.235 156.784 16.28 157.355C16.2868 157.418 16.2759 157.481 16.2485 157.538C16.221 157.595 16.1783 157.642 16.125 157.676C16.0124 157.765 15.8735 157.814 15.73 157.816ZM14.73 156.173C14.98 156.98 15.305 157.511 15.615 157.616C15.6857 157.637 15.7607 157.639 15.8326 157.623C15.9045 157.606 15.9708 157.571 16.025 157.521C16.0523 157.505 16.0744 157.481 16.0886 157.452C16.1028 157.424 16.1085 157.392 16.105 157.36C16.075 157.01 15.225 156.454 14.725 156.173H14.73Z" fill="#407BFF"/>
<path d="M15.955 156.399C15.4607 156.397 14.9733 156.282 14.53 156.063C14.516 156.056 14.5043 156.046 14.4963 156.032C14.4883 156.019 14.4844 156.003 14.485 155.988C14.4851 155.971 14.4898 155.955 14.4987 155.941C14.5075 155.927 14.5201 155.915 14.535 155.908C14.58 155.908 15.73 155.252 16.35 155.472C16.4262 155.497 16.4959 155.539 16.5539 155.594C16.6119 155.65 16.6567 155.717 16.685 155.793C16.7245 155.865 16.7381 155.949 16.7236 156.03C16.709 156.111 16.6672 156.184 16.605 156.238C16.4116 156.361 16.1833 156.418 15.955 156.399ZM14.775 155.988C15.275 156.198 16.22 156.329 16.49 156.098C16.535 156.063 16.575 155.998 16.52 155.858C16.5001 155.807 16.4692 155.761 16.4294 155.724C16.3896 155.687 16.3419 155.659 16.29 155.642C15.865 155.492 15.1 155.828 14.775 155.988Z" fill="#407BFF"/>
<path d="M45.9 169.302C45.3948 169.29 44.8921 169.226 44.4 169.111C44.3814 169.107 44.3645 169.097 44.3519 169.083C44.3393 169.068 44.3317 169.05 44.33 169.031C44.3273 169.013 44.3308 168.994 44.3398 168.978C44.3489 168.961 44.363 168.949 44.38 168.941C44.605 168.836 46.57 167.939 47.07 168.26C47.1146 168.291 47.1502 168.333 47.173 168.382C47.1959 168.432 47.2052 168.486 47.2 168.54C47.1941 168.639 47.1668 168.734 47.1202 168.821C47.0736 168.907 47.0087 168.983 46.93 169.041C46.6206 169.23 46.2617 169.321 45.9 169.302ZM44.73 168.991C45.315 169.101 46.395 169.242 46.84 168.906C46.8988 168.862 46.9473 168.806 46.9818 168.741C47.0164 168.676 47.0363 168.604 47.04 168.53C47.0429 168.508 47.0399 168.485 47.0311 168.464C47.0223 168.442 47.0081 168.424 46.99 168.41C46.71 168.22 45.545 168.631 44.73 168.991Z" fill="#407BFF"/>
<path d="M44.44 169.111C44.4208 169.119 44.3992 169.119 44.38 169.111C44.3676 169.1 44.3582 169.086 44.353 169.07C44.3477 169.055 44.3467 169.038 44.35 169.021C44.35 168.941 44.82 166.993 45.885 167.118C46.155 167.148 46.225 167.283 46.24 167.388C46.31 167.889 45.065 168.891 44.475 169.126L44.44 169.111ZM45.79 167.273C45.105 167.273 44.71 168.405 44.575 168.861C45.22 168.52 46.105 167.709 46.075 167.393C46.075 167.368 46.075 167.298 45.88 167.278L45.79 167.273Z" fill="#407BFF"/>
<path d="M55.01 32.4378L55.925 32.3427C55.925 32.3427 55.355 32.9437 55.01 32.4378Z" fill="#263238"/>
<path opacity="0.6" d="M17.395 3.89185L2.73999 98.796L85.2 111.559L99.855 16.6496L17.395 3.89185ZM51.275 57.8731C47.4901 57.2862 43.964 55.588 41.1428 52.9931C38.3215 50.3983 36.332 47.0234 35.4258 43.2956C34.5196 39.5677 34.7375 35.6544 36.0519 32.0506C37.3663 28.4468 39.7182 25.3146 42.81 23.0502C45.9018 20.7857 49.5945 19.4908 53.4211 19.3293C57.2477 19.1678 61.0361 20.1469 64.307 22.1428C67.578 24.1387 70.1845 27.0616 71.7969 30.5419C73.4093 34.0221 73.955 37.9032 73.365 41.6942C72.5746 46.7729 69.8041 51.3296 65.6622 54.3632C61.5202 57.3968 56.3455 58.6592 51.275 57.8731Z" fill="#407BFF"/>
<g style="mix-blend-mode:multiply" opacity="0.3">
<path d="M82.71 107.957H82.585L0 95.1396V95.0144L14.695 0H14.815L97.4 12.8178V12.9431L82.71 107.957ZM0.285004 94.9342L82.5 107.672L97.115 13.0032L14.9 0.285509L0.285004 94.9342Z" fill="#407BFF"/>
</g>
<path d="M54.245 58.8549C53.212 58.8538 52.1807 58.7734 51.16 58.6145C46.0305 57.8128 41.4104 55.0521 38.2689 50.9115C35.1274 46.771 33.7088 41.5725 34.3107 36.4068C34.9126 31.2411 37.4883 26.5097 41.4972 23.2053C45.5062 19.9009 50.6369 18.2804 55.8127 18.6838C60.9886 19.0872 65.8074 21.4831 69.258 25.3688C72.7086 29.2546 74.5228 34.3281 74.32 39.5249C74.1171 44.7217 71.9131 49.6379 68.1702 53.2419C64.4273 56.8459 59.4365 58.8576 54.245 58.8549ZM51.39 57.1319C55.0262 57.6947 58.7474 57.1647 62.0831 55.609C65.4187 54.0533 68.219 51.5417 70.1299 48.3918C72.0407 45.2419 72.9764 41.5952 72.8186 37.9126C72.6607 34.23 71.4165 30.677 69.2431 27.7028C67.0697 24.7286 64.0648 22.4667 60.6083 21.2032C57.1519 19.9397 53.399 19.7312 49.8243 20.6042C46.2496 21.4772 43.0135 23.3924 40.5253 26.1077C38.037 28.823 36.4083 32.2164 35.845 35.8589C35.0963 40.7441 36.3124 45.7274 39.2267 49.7154C42.1409 53.7035 46.5152 56.3707 51.39 57.1319Z" fill="#FAFAFA"/>
<path d="M35.3467 63.7446L17.1825 60.9309L16.5514 65.0197L34.7155 67.8334L35.3467 63.7446Z" fill="#407BFF"/>
<path opacity="0.6" d="M35.3467 63.7446L17.1825 60.9309L16.5514 65.0197L34.7155 67.8334L35.3467 63.7446Z" fill="#FAFAFA"/>
<path d="M50.0282 66.0197L37.7393 64.1161L37.1082 68.2049L49.3971 70.1085L50.0282 66.0197Z" fill="#407BFF"/>
<path opacity="0.6" d="M50.0282 66.0197L37.7393 64.1161L37.1082 68.2049L49.3971 70.1085L50.0282 66.0197Z" fill="#FAFAFA"/>
<path d="M81.5849 79.3912L15.9005 69.2163L15.2694 73.3051L80.9538 83.48L81.5849 79.3912Z" fill="#FAFAFA"/>
<path d="M47.7566 82.8271L15.0371 77.8607L14.4176 81.9567L47.1371 86.9231L47.7566 82.8271Z" fill="#FAFAFA"/>
<path d="M74.662 87.2206L52.8117 83.8358L52.1806 87.9246L74.0309 91.3093L74.662 87.2206Z" fill="#FAFAFA"/>
<path d="M65.7301 94.7415L13.2192 86.6073L12.5881 90.6961L65.099 98.8303L65.7301 94.7415Z" fill="#FAFAFA"/>
<path d="M100.735 111.559H100.235C100.237 110.316 100.084 109.077 99.78 107.872L100.28 107.752C100.589 108.997 100.742 110.276 100.735 111.559ZM98.775 105.087C97.6748 102.781 96.0119 100.789 93.94 99.297L94.23 98.8912C96.3697 100.43 98.089 102.483 99.23 104.862L98.775 105.087Z" fill="#407BFF"/>
<path opacity="0.6" d="M100.735 111.559H100.235C100.237 110.316 100.084 109.077 99.78 107.872L100.28 107.752C100.589 108.997 100.742 110.276 100.735 111.559ZM98.775 105.087C97.6748 102.781 96.0119 100.789 93.94 99.297L94.23 98.8912C96.3697 100.43 98.089 102.483 99.23 104.862L98.775 105.087Z" fill="#FAFAFA"/>
<path d="M85.2 97.7493C82.4736 97.7493 79.8084 98.5592 77.5415 100.077C75.2745 101.594 73.5077 103.751 72.4643 106.274C71.421 108.798 71.148 111.574 71.6799 114.253C72.2118 116.932 73.5247 119.392 75.4526 121.324C77.3804 123.255 79.8367 124.57 82.5107 125.103C85.1847 125.636 87.9564 125.363 90.4753 124.317C92.9942 123.272 95.1471 121.502 96.6618 119.231C98.1765 116.96 98.985 114.29 98.985 111.559C98.985 107.896 97.5327 104.384 94.9475 101.794C92.3623 99.2042 88.856 97.7493 85.2 97.7493ZM85.2 123.58C82.8266 123.58 80.5066 122.875 78.5332 121.554C76.5598 120.233 75.0217 118.356 74.1135 116.159C73.2052 113.963 72.9676 111.546 73.4306 109.214C73.8936 106.882 75.0365 104.74 76.7147 103.058C78.393 101.377 80.5312 100.232 82.8589 99.7684C85.1867 99.3046 87.5995 99.5427 89.7922 100.453C91.9849 101.362 93.8591 102.903 95.1776 104.88C96.4962 106.857 97.2 109.181 97.2 111.559C97.2 114.747 95.9357 117.805 93.6853 120.059C91.4349 122.314 88.3826 123.58 85.2 123.58Z" fill="#407BFF"/>
<path opacity="0.6" d="M85.2 97.7493C82.4736 97.7493 79.8084 98.5592 77.5415 100.077C75.2745 101.594 73.5077 103.751 72.4643 106.274C71.421 108.798 71.148 111.574 71.6799 114.253C72.2118 116.932 73.5247 119.392 75.4526 121.324C77.3804 123.255 79.8367 124.57 82.5107 125.103C85.1847 125.636 87.9564 125.363 90.4753 124.317C92.9942 123.272 95.1471 121.502 96.6618 119.231C98.1765 116.96 98.985 114.29 98.985 111.559C98.985 107.896 97.5327 104.384 94.9475 101.794C92.3623 99.2042 88.856 97.7493 85.2 97.7493ZM85.2 123.58C82.8266 123.58 80.5066 122.875 78.5332 121.554C76.5598 120.233 75.0217 118.356 74.1135 116.159C73.2052 113.963 72.9676 111.546 73.4306 109.214C73.8936 106.882 75.0365 104.74 76.7147 103.058C78.393 101.377 80.5312 100.232 82.8589 99.7684C85.1867 99.3046 87.5995 99.5427 89.7922 100.453C91.9849 101.362 93.8591 102.903 95.1776 104.88C96.4962 106.857 97.2 109.181 97.2 111.559C97.2 114.747 95.9357 117.805 93.6853 120.059C91.4349 122.314 88.3826 123.58 85.2 123.58Z" fill="#FAFAFA"/>
<path d="M85.2 123.575C91.8247 123.575 97.195 118.195 97.195 111.559C97.195 104.922 91.8247 99.5424 85.2 99.5424C78.5753 99.5424 73.205 104.922 73.205 111.559C73.205 118.195 78.5753 123.575 85.2 123.575Z" fill="#407BFF"/>
<path opacity="0.2" d="M85.2 123.575C91.8247 123.575 97.195 118.195 97.195 111.559C97.195 104.922 91.8247 99.5424 85.2 99.5424C78.5753 99.5424 73.205 104.922 73.205 111.559C73.205 118.195 78.5753 123.575 85.2 123.575Z" fill="black"/>
<path d="M83.335 119.162L76.295 112.11L78.065 110.342L83.335 115.621L92.34 106.6L94.105 108.373L83.335 119.162Z" fill="#FAFAFA"/>
</svg>
