<svg width="150" height="150" viewBox="0 0 150 150" fill="none" xmlns="http://www.w3.org/2000/svg">
<path d="M89.79 143.874C81.6218 152.042 68.3786 152.042 60.2104 143.874L6.12614 89.79C-2.04205 81.6218 -2.04205 68.3786 6.12614 60.2104L60.2104 6.12614C68.3786 -2.04205 81.6218 -2.04205 89.79 6.12614L143.874 60.2104C152.042 68.3786 152.042 81.6218 143.874 89.79L89.79 143.874Z" fill="#4053FF"/>
<path d="M69.2271 115.742C63.2003 115.318 58.3036 114.513 54.5368 113.326C50.8538 112.055 48.0916 110.911 46.25 109.894L50.519 97.8178C53.1976 99.1738 56.4202 100.402 60.1869 101.504C64.0374 102.606 68.3901 103.157 73.245 103.157C79.0206 103.157 82.9967 102.309 85.173 100.614C87.433 98.8347 88.5631 96.5043 88.5631 93.6229C88.5631 91.6738 88.1028 89.9788 87.1819 88.5381C86.2612 87.0975 84.9638 85.8263 83.2896 84.7246C81.6155 83.6228 79.6066 82.6059 77.2628 81.6737C75.0028 80.7416 72.4916 79.7669 69.7293 78.75C67.1346 77.8178 64.5397 76.7584 61.9448 75.572C59.4336 74.3856 57.1317 72.9449 55.0391 71.25C53.0301 69.4703 51.3979 67.3517 50.1423 64.8941C48.8867 62.4365 48.2589 59.428 48.2589 55.8686C48.2589 50.0212 49.9749 45.0636 53.4068 40.9958C56.8388 36.8432 62.1122 34.1737 69.2271 32.9873V18.75H82.2852V32.4788C86.303 32.8178 89.9024 33.411 93.0831 34.2585C96.264 35.0212 98.7752 35.7839 100.617 36.5466L97.4777 49.1314C95.0503 48.1992 92.1624 47.3094 88.8142 46.4619C85.5497 45.6144 81.7829 45.1907 77.5139 45.1907C72.9939 45.1907 69.6038 46.0382 67.3437 47.7331C65.0837 49.3433 63.9537 51.5889 63.9537 54.4703C63.9537 56.1652 64.2885 57.606 64.9581 58.7924C65.6279 59.8941 66.6323 60.9111 67.9715 61.8432C69.3109 62.6907 70.9431 63.5381 72.8683 64.3856C74.7936 65.1483 76.9699 65.9534 79.3973 66.8009C82.8293 68.1568 86.0519 69.5975 89.0653 71.1229C92.1624 72.5635 94.8409 74.3008 97.101 76.3347C99.361 78.2838 101.119 80.6144 102.374 83.3263C103.714 86.0381 104.383 89.2585 104.383 92.9873C104.383 98.5805 102.667 103.411 99.2355 107.479C95.8036 111.547 90.1535 114.174 82.2852 115.36V131.25H69.2271V115.742Z" fill="white"/>
</svg>
