<svg width="94" height="127" viewBox="0 0 94 127" fill="none" xmlns="http://www.w3.org/2000/svg">
<path d="M59.8462 106.013H8.48401C7.65807 106.002 6.8671 105.678 6.26972 105.108C5.67235 104.537 5.31275 103.762 5.26305 102.937L0.657084 13.737C0.631548 13.3402 0.688246 12.9425 0.823627 12.5686C0.959009 12.1948 1.17015 11.853 1.44382 11.5645C1.7175 11.2761 2.0478 11.0473 2.41402 10.8926C2.78024 10.7378 3.17449 10.6603 3.57205 10.665H54.9342C55.7598 10.6757 56.5508 10.9984 57.1482 11.5682C57.7457 12.1381 58.1054 12.9128 58.1552 13.737L62.7531 102.937C62.7786 103.334 62.7221 103.731 62.5873 104.104C62.4524 104.478 62.242 104.82 61.9693 105.108C61.6966 105.397 61.3673 105.626 61.002 105.782C60.6367 105.938 60.2433 106.016 59.8462 106.013Z" fill="#407BFF"/>
<path opacity="0.8" d="M59.8462 106.013H8.48401C7.65807 106.002 6.8671 105.678 6.26972 105.108C5.67235 104.537 5.31275 103.762 5.26305 102.937L0.657084 13.737C0.631548 13.3402 0.688246 12.9425 0.823627 12.5686C0.959009 12.1948 1.17015 11.853 1.44382 11.5645C1.7175 11.2761 2.0478 11.0473 2.41402 10.8926C2.78024 10.7378 3.17449 10.6603 3.57205 10.665H54.9342C55.7598 10.6757 56.5508 10.9984 57.1482 11.5682C57.7457 12.1381 58.1054 12.9128 58.1552 13.737L62.7531 102.937C62.7786 103.334 62.7221 103.731 62.5873 104.104C62.4524 104.478 62.242 104.82 61.9693 105.108C61.6966 105.397 61.3673 105.626 61.002 105.782C60.6367 105.938 60.2433 106.016 59.8462 106.013Z" fill="white"/>
<path d="M49.8653 7.75806H44.1843V8.16068H49.8653V7.75806Z" fill="#407BFF"/>
<path d="M42.2155 7.75806H40.1339V8.16068H42.2155V7.75806Z" fill="#407BFF"/>
<path d="M62.0565 100.353H12.9369C12.1459 100.345 11.3872 100.038 10.8135 99.4932C10.2398 98.9487 9.89364 98.2069 9.84481 97.4174L5.44821 12.1023C5.42377 11.7226 5.47806 11.3419 5.60766 10.9842C5.73727 10.6264 5.93939 10.2993 6.20136 10.0234C6.46333 9.7474 6.77949 9.52854 7.13002 9.38052C7.48055 9.2325 7.85789 9.1585 8.23836 9.16317H57.358C58.1489 9.17191 58.9072 9.47994 59.4802 10.0253C60.0531 10.5706 60.3983 11.3127 60.4461 12.1023L64.8427 97.4174C64.8671 97.7966 64.8129 98.1767 64.6835 98.534C64.5541 98.8913 64.3523 99.2179 64.0907 99.4935C63.8291 99.7691 63.5134 99.9877 63.1633 100.135C62.8133 100.283 62.4365 100.357 62.0565 100.353Z" fill="#407BFF"/>
<path d="M62.0565 98.3918H12.9369C12.6489 98.3819 12.3745 98.2665 12.1659 98.0675C11.9573 97.8686 11.8291 97.6 11.8056 97.3127L7.40494 12.0016C7.39498 11.8882 7.4092 11.7739 7.44668 11.6663C7.48416 11.5587 7.54403 11.4603 7.62235 11.3776C7.7009 11.295 7.79606 11.2301 7.90156 11.1871C8.00705 11.1441 8.12048 11.1239 8.23434 11.128H57.3539C57.6413 11.1388 57.9147 11.2546 58.1224 11.4535C58.3302 11.6523 58.4578 11.9204 58.4813 12.207L62.902 97.5181C62.9117 97.6311 62.8974 97.745 62.86 97.8521C62.8226 97.9593 62.763 98.0573 62.6851 98.1398C62.6072 98.2223 62.5127 98.2874 62.4078 98.3308C62.303 98.3742 62.1901 98.395 62.0767 98.3918H62.0565ZM8.23434 11.2286C8.13424 11.2254 8.03457 11.243 7.94167 11.2805C7.84878 11.3179 7.76471 11.3743 7.69483 11.446C7.62761 11.5204 7.57618 11.6076 7.54366 11.7024C7.51113 11.7972 7.49818 11.8977 7.5056 11.9976L11.9022 97.3087C11.9246 97.57 12.0418 97.8141 12.2316 97.995C12.4214 98.176 12.6708 98.2813 12.9329 98.2911H62.0525C62.1521 98.295 62.2514 98.2777 62.3437 98.2402C62.4361 98.2027 62.5193 98.1459 62.588 98.0737C62.6569 98.0004 62.7094 97.9134 62.742 97.8183C62.7746 97.7232 62.7866 97.6222 62.7772 97.5221L58.3846 12.211C58.3632 11.9501 58.2469 11.706 58.0577 11.525C57.8685 11.344 57.6196 11.2386 57.358 11.2286H8.23434Z" fill="white"/>
<path opacity="0.3" d="M44.8754 42.2206C50.4622 36.4876 50.0984 27.072 44.0628 21.1904C38.0272 15.3087 28.6054 15.1882 23.0186 20.9212C17.4318 26.6542 17.7956 36.0698 23.8312 41.9514C29.8668 47.8331 39.2886 47.9536 44.8754 42.2206Z" fill="white"/>
<path d="M45.992 31.5729C46.1047 33.5515 45.7068 35.5258 44.8365 37.3063C43.8944 39.2159 42.432 40.8206 40.6177 41.9354C38.8034 43.0502 36.7111 43.6297 34.5818 43.6073C32.3751 43.5874 30.2112 42.9966 28.3006 41.8924C26.39 40.7883 24.7978 39.2083 23.6788 37.3063C22.6361 35.5669 22.036 33.5982 21.9315 31.5729C21.8322 30.0197 22.0546 28.4628 22.5847 26.9995C23.1148 25.5361 23.9412 24.198 25.0123 23.0687C26.0833 21.9395 27.3759 21.0435 28.8092 20.4368C30.2424 19.83 31.7854 19.5256 33.3417 19.5427C36.5808 19.5764 39.6868 20.8363 42.0341 23.0686C44.3814 25.3008 45.7957 28.3396 45.992 31.5729Z" fill="white"/>
<path d="M44.8244 37.3063C43.8823 39.216 42.4199 40.8207 40.6056 41.9355C38.7913 43.0503 36.699 43.6298 34.5697 43.6073C32.363 43.5875 30.1991 42.9967 28.2885 41.8925C26.3779 40.7883 24.7857 39.2084 23.6667 37.3063C26.7263 35.1933 30.3602 34.0692 34.0785 34.0854C37.8962 34.0998 41.6282 35.2184 44.8244 37.3063Z" fill="#407BFF"/>
<path d="M37.6768 31.2932C39.6896 29.2277 39.5579 25.8348 37.3825 23.715C35.2071 21.5951 31.812 21.551 29.7992 23.6164C27.7864 25.6819 27.9181 29.0748 30.0935 31.1947C32.2689 33.3146 35.664 33.3587 37.6768 31.2932Z" fill="#407BFF"/>
<path d="M55.0148 67.1606H16.5526C16.2176 67.1571 15.8963 67.0269 15.6535 66.796C15.4107 66.5652 15.2644 66.2509 15.244 65.9165L14.9542 60.2798C14.9442 60.1195 14.9674 59.9588 15.0223 59.8079C15.0773 59.6569 15.1628 59.5189 15.2735 59.4025C15.3843 59.2861 15.5178 59.1938 15.6659 59.1314C15.8139 59.069 15.9732 59.0378 16.1338 59.0398H54.5961C54.9304 59.0431 55.2512 59.1729 55.4939 59.4029C55.7366 59.6329 55.8833 59.9461 55.9046 60.2798L56.1945 65.9165C56.2051 66.0772 56.1823 66.2383 56.1276 66.3897C56.0729 66.5412 55.9875 66.6797 55.8767 66.7965C55.7659 66.9133 55.6321 67.006 55.4838 67.0686C55.3355 67.1313 55.1758 67.1626 55.0148 67.1606Z" fill="white"/>
<path opacity="0.3" d="M43.2382 55.9275H27.1737C26.8373 55.925 26.5145 55.7946 26.2707 55.5628C26.027 55.331 25.8805 55.0151 25.8611 54.6793L25.8007 53.4715C25.7902 53.3108 25.813 53.1497 25.8676 52.9983C25.9223 52.8468 26.0078 52.7083 26.1186 52.5915C26.2293 52.4747 26.3631 52.382 26.5114 52.3193C26.6597 52.2567 26.8194 52.2254 26.9804 52.2274H43.0409C43.3759 52.2308 43.6972 52.3611 43.94 52.592C44.1828 52.8228 44.3291 53.1371 44.3494 53.4715L44.4138 54.6793C44.4237 54.8397 44.4007 55.0004 44.346 55.1515C44.2914 55.3026 44.2064 55.4409 44.0962 55.5579C43.986 55.6749 43.8531 55.768 43.7055 55.8316C43.5579 55.8951 43.3989 55.9278 43.2382 55.9275Z" fill="black"/>
<path opacity="0.3" d="M49.213 94.2609H25.1484C24.5786 94.2539 24.0325 94.0318 23.6196 93.639C23.2067 93.2463 22.9575 92.7119 22.922 92.1432L22.781 89.3651C22.7668 89.092 22.8084 88.819 22.9032 88.5625C22.9979 88.3061 23.144 88.0716 23.3323 87.8734C23.5207 87.6753 23.7475 87.5176 23.9988 87.4099C24.2501 87.3023 24.5207 87.2469 24.7941 87.2473H48.8507C49.4205 87.2543 49.9666 87.4765 50.3795 87.8692C50.7924 88.262 51.0416 88.7963 51.0772 89.3651L51.2181 92.1432C51.2323 92.4155 51.1909 92.6879 51.0967 92.9438C51.0024 93.1998 50.8571 93.4338 50.6695 93.6319C50.482 93.8299 50.2562 93.9878 50.0059 94.096C49.7555 94.2041 49.4858 94.2602 49.213 94.2609Z" fill="black"/>
<path d="M55.7194 80.7932H17.2531C16.9184 80.7888 16.5977 80.6583 16.3551 80.4276C16.1125 80.197 15.9659 79.8832 15.9446 79.5491L15.6547 73.9125C15.6448 73.7519 15.668 73.5911 15.7229 73.4399C15.7778 73.2888 15.8632 73.1505 15.9739 73.0338C16.0846 72.9171 16.2181 72.8244 16.3661 72.7616C16.5142 72.6987 16.6736 72.667 16.8344 72.6684H55.2966C55.6317 72.6718 55.9529 72.8021 56.1957 73.0329C56.4385 73.2638 56.5848 73.5781 56.6052 73.9125L56.8991 79.5491C56.9084 79.7095 56.8848 79.8702 56.8297 80.0211C56.7745 80.172 56.6891 80.31 56.5785 80.4265C56.468 80.5431 56.3347 80.6358 56.1869 80.6989C56.0392 80.762 55.8801 80.7941 55.7194 80.7932Z" fill="white"/>
<path d="M21.4322 63.0981C21.4433 63.276 21.4176 63.4543 21.3566 63.6219C21.2957 63.7894 21.2009 63.9426 21.0781 64.0718C20.9553 64.201 20.8071 64.3035 20.6429 64.3729C20.4787 64.4423 20.302 64.4771 20.1237 64.4751C19.7534 64.4707 19.3985 64.3262 19.1303 64.0708C18.8622 63.8153 18.7007 63.4678 18.6783 63.0981C18.6666 62.9204 18.6918 62.7422 18.7523 62.5747C18.8128 62.4071 18.9072 62.2539 19.0297 62.1246C19.1522 61.9953 19.3001 61.8928 19.4641 61.8233C19.6281 61.7539 19.8047 61.7191 19.9828 61.7212C20.3535 61.7255 20.7089 61.8698 20.9777 62.1252C21.2465 62.3805 21.4089 62.7281 21.4322 63.0981Z" fill="#263238"/>
<path d="M25.6719 63.0981C25.6835 63.2758 25.6583 63.454 25.5979 63.6216C25.5374 63.7891 25.4429 63.9423 25.3204 64.0716C25.198 64.2009 25.0501 64.3035 24.8861 64.3729C24.7221 64.4423 24.5455 64.4771 24.3674 64.4751C23.9968 64.4716 23.6413 64.3275 23.3729 64.0718C23.1046 63.8162 22.9434 63.4681 22.922 63.0981C22.9103 62.9204 22.9355 62.7422 22.996 62.5747C23.0564 62.4071 23.1509 62.2539 23.2734 62.1246C23.3959 61.9953 23.5437 61.8928 23.7078 61.8233C23.8718 61.7539 24.0484 61.7191 24.2265 61.7212C24.5971 61.7246 24.9525 61.8688 25.2209 62.1244C25.4892 62.3801 25.6504 62.7281 25.6719 63.0981Z" fill="#263238"/>
<path d="M29.8873 63.0981C29.8989 63.2758 29.8738 63.454 29.8133 63.6216C29.7528 63.7891 29.6584 63.9423 29.5359 64.0716C29.4134 64.2009 29.2655 64.3035 29.1015 64.3729C28.9375 64.4423 28.7609 64.4771 28.5828 64.4751C28.2121 64.4707 27.8567 64.3264 27.5879 64.071C27.3191 63.8157 27.1567 63.4681 27.1334 63.0981C27.1223 62.9202 27.148 62.7419 27.2089 62.5744C27.2699 62.4068 27.3647 62.2537 27.4875 62.1244C27.6103 61.9952 27.7585 61.8927 27.9227 61.8233C28.0869 61.7539 28.2636 61.7191 28.4419 61.7212C28.8122 61.7256 29.1671 61.87 29.4353 62.1255C29.7034 62.3809 29.8649 62.7284 29.8873 63.0981Z" fill="#263238"/>
<path d="M34.1348 63.0981C34.1459 63.2757 34.1203 63.4536 34.0596 63.6209C33.9989 63.7881 33.9044 63.9411 33.7821 64.0703C33.6597 64.1994 33.512 64.302 33.3483 64.3717C33.1846 64.4413 33.0083 64.4765 32.8304 64.475C32.4596 64.4707 32.1042 64.3264 31.8354 64.071C31.5666 63.8156 31.4043 63.4681 31.3809 63.0981C31.3699 62.9205 31.3955 62.7425 31.4562 62.5753C31.5169 62.408 31.6113 62.2551 31.7337 62.1259C31.8561 61.9967 32.0037 61.8941 32.1674 61.8245C32.3312 61.7549 32.5075 61.7197 32.6854 61.7211C33.0561 61.7255 33.4115 61.8698 33.6804 62.1251C33.9492 62.3805 34.1115 62.728 34.1348 63.0981Z" fill="#263238"/>
<path d="M22.1449 76.7227C22.1565 76.9005 22.1313 77.0787 22.0709 77.2462C22.0104 77.4137 21.9159 77.5669 21.7935 77.6962C21.671 77.8255 21.5231 77.9281 21.3591 77.9975C21.1951 78.067 21.0185 78.1018 20.8404 78.0997C20.4696 78.0954 20.1142 77.951 19.8454 77.6957C19.5766 77.4403 19.4143 77.0928 19.3909 76.7227C19.3799 76.5448 19.4056 76.3665 19.4665 76.199C19.5275 76.0315 19.6223 75.8783 19.7451 75.7491C19.8679 75.6199 20.016 75.5173 20.1802 75.448C20.3444 75.3786 20.5212 75.3438 20.6994 75.3458C21.0698 75.3502 21.4247 75.4947 21.6929 75.7501C21.961 76.0056 22.1225 76.3531 22.1449 76.7227Z" fill="#263238"/>
<path d="M26.3764 76.7228C26.3875 76.9003 26.3619 77.0783 26.3012 77.2456C26.2405 77.4128 26.146 77.5658 26.0237 77.6949C25.9013 77.8241 25.7537 77.9267 25.5899 77.9963C25.4262 78.066 25.2499 78.1012 25.072 78.0997C24.7012 78.0954 24.3458 77.9511 24.077 77.6957C23.8082 77.4403 23.6459 77.0928 23.6225 76.7228C23.6109 76.545 23.6361 76.3668 23.6965 76.1993C23.757 76.0318 23.8514 75.8786 23.9739 75.7493C24.0964 75.62 24.2443 75.5174 24.4083 75.448C24.5723 75.3785 24.7489 75.3437 24.927 75.3458C25.2977 75.3501 25.6531 75.4945 25.922 75.7498C26.1908 76.0052 26.3531 76.3527 26.3764 76.7228Z" fill="#263238"/>
<path d="M30.608 76.7228C30.6191 76.9007 30.5934 77.079 30.5324 77.2465C30.4715 77.414 30.3767 77.5672 30.2539 77.6964C30.1311 77.8256 29.9829 77.9282 29.8187 77.9976C29.6545 78.0669 29.4778 78.1017 29.2995 78.0997C28.9289 78.0963 28.5734 77.9521 28.3051 77.6965C28.0367 77.4408 27.8755 77.0928 27.8541 76.7228C27.8424 76.545 27.8676 76.3668 27.9281 76.1993C27.9886 76.0318 28.083 75.8786 28.2055 75.7493C28.328 75.62 28.4759 75.5174 28.6399 75.448C28.8039 75.3785 28.9805 75.3437 29.1586 75.3458C29.5293 75.3501 29.8847 75.4945 30.1535 75.7498C30.4223 76.0052 30.5847 76.3527 30.608 76.7228Z" fill="#263238"/>
<path d="M34.8354 76.7227C34.8471 76.9005 34.8219 77.0787 34.7614 77.2462C34.7009 77.4137 34.6065 77.5669 34.484 77.6962C34.3615 77.8255 34.2136 77.9281 34.0496 77.9975C33.8856 78.067 33.709 78.1018 33.5309 78.0997C33.1602 78.0954 32.8048 77.951 32.536 77.6957C32.2672 77.4403 32.1048 77.0928 32.0815 76.7227C32.0704 76.5448 32.0961 76.3665 32.1571 76.199C32.218 76.0315 32.3128 75.8783 32.4356 75.7491C32.5584 75.6199 32.7066 75.5173 32.8708 75.448C33.035 75.3786 33.2117 75.3438 33.39 75.3458C33.7606 75.3492 34.1161 75.4934 34.3844 75.749C34.6528 76.0047 34.814 76.3527 34.8354 76.7227Z" fill="#263238"/>
<path d="M39.067 76.7228C39.0786 76.9006 39.0534 77.0788 38.993 77.2463C38.9325 77.4138 38.8381 77.567 38.7156 77.6963C38.5931 77.8256 38.4452 77.9282 38.2812 77.9976C38.1172 78.0671 37.9406 78.1018 37.7625 78.0998C37.3917 78.0955 37.0363 77.9511 36.7675 77.6958C36.4987 77.4404 36.3364 77.0929 36.3131 76.7228C36.302 76.5453 36.3276 76.3673 36.3883 76.2C36.449 76.0328 36.5435 75.8798 36.6658 75.7507C36.7882 75.6215 36.9358 75.5189 37.0996 75.4493C37.2633 75.3796 37.4396 75.3444 37.6175 75.3459C37.9883 75.3502 38.3437 75.4945 38.6125 75.7499C38.8813 76.0053 39.0436 76.3528 39.067 76.7228Z" fill="#263238"/>
<path d="M43.2986 76.7228C43.3096 76.9007 43.2839 77.079 43.223 77.2465C43.162 77.414 43.0672 77.5672 42.9444 77.6964C42.8216 77.8256 42.6735 77.9282 42.5093 77.9976C42.3451 78.0669 42.1683 78.1017 41.99 78.0997C41.6197 78.0953 41.2648 77.9508 40.9966 77.6954C40.7285 77.4399 40.567 77.0924 40.5446 76.7228C40.533 76.545 40.5582 76.3668 40.6186 76.1993C40.6791 76.0318 40.7736 75.8786 40.8961 75.7493C41.0185 75.62 41.1664 75.5174 41.3304 75.448C41.4945 75.3785 41.671 75.3437 41.8491 75.3458C42.2199 75.3501 42.5753 75.4945 42.8441 75.7498C43.1129 76.0052 43.2752 76.3527 43.2986 76.7228Z" fill="#263238"/>
<path d="M89.0723 29.9666C89.173 30.1195 89.2253 30.2001 89.2898 30.3088L89.4709 30.6067C89.5877 30.808 89.6924 31.0093 89.793 31.2066C89.9943 31.6092 90.1957 32.0119 90.3567 32.4145C90.6942 33.2141 90.9846 34.0328 91.2264 34.8664C91.7138 36.5131 92.0348 38.2045 92.1846 39.9153L92.2128 40.2334C92.2161 40.2977 92.2161 40.3622 92.2128 40.4266V40.64C92.2195 40.92 92.2033 41.2001 92.1645 41.4775C92.0873 41.9916 91.9522 42.4954 91.7618 42.9792C91.4081 43.8434 90.9396 44.6559 90.3688 45.3949C89.304 46.7584 88.0405 47.9541 86.6204 48.942L85.5092 47.6416C86.5203 46.4995 87.4158 45.2601 88.1826 43.9415C88.5276 43.3433 88.798 42.7051 88.9878 42.0411C89.0647 41.7599 89.1092 41.4708 89.1207 41.1795C89.1331 41.055 89.1331 40.9296 89.1207 40.8051V40.7205C89.1247 40.6831 89.1247 40.6453 89.1207 40.6078L89.0723 40.326C88.8134 38.8255 88.4475 37.3454 87.9772 35.8971C87.7437 35.1765 87.4578 34.4799 87.172 33.7995C87.0311 33.4573 86.87 33.1231 86.709 32.801L86.4593 32.3259L86.3345 32.1045L86.2298 31.9273L89.0723 29.9666Z" fill="#803E3C"/>
<path d="M85.328 48.9502L86.7855 52.0302L87.941 49.4252C87.941 49.4252 86.9143 47.1706 85.5253 47.3799L85.328 48.9502Z" fill="#7F3E3B"/>
<path d="M87.8283 52.1831L88.9879 50.2828L87.941 49.4252L86.7855 52.0301L87.8283 52.1831Z" fill="#7F3E3B"/>
<path d="M81.2737 123.213C81.5751 123.206 81.8748 123.165 82.1675 123.093C82.1823 123.088 82.1957 123.08 82.2063 123.068C82.2169 123.057 82.2243 123.043 82.2279 123.028C82.2303 123.013 82.2282 122.997 82.2218 122.982C82.2153 122.968 82.2049 122.956 82.1916 122.948C82.0749 122.871 81.0522 122.211 80.6577 122.388C80.6139 122.408 80.5764 122.44 80.5488 122.48C80.5212 122.519 80.5046 122.565 80.5006 122.613C80.4884 122.686 80.4942 122.761 80.5173 122.831C80.5405 122.901 80.5803 122.965 80.6335 123.016C80.816 123.157 81.0435 123.227 81.2737 123.213ZM81.938 122.976C81.3542 123.097 80.9113 123.076 80.7301 122.919C80.6932 122.883 80.666 122.837 80.6512 122.787C80.6365 122.737 80.6345 122.684 80.6456 122.634C80.6456 122.565 80.6858 122.545 80.714 122.533C80.9314 122.436 81.5233 122.722 81.938 122.976Z" fill="#407BFF"/>
<path d="M82.1473 123.092H82.1876C82.1997 123.085 82.2097 123.074 82.2167 123.061C82.2237 123.049 82.2275 123.034 82.2278 123.02C82.2278 122.98 82.2278 122.009 81.8574 121.683C81.812 121.642 81.7582 121.612 81.6998 121.594C81.6414 121.576 81.5798 121.571 81.5192 121.579C81.4557 121.579 81.3943 121.601 81.3452 121.642C81.2962 121.682 81.2624 121.738 81.2495 121.8C81.173 122.183 81.785 122.907 82.1071 123.092H82.1473ZM81.5716 121.728C81.6042 121.727 81.6366 121.732 81.667 121.744C81.6974 121.756 81.7252 121.773 81.7487 121.796C81.9611 122.109 82.0709 122.481 82.0628 122.859C81.7407 122.601 81.3582 122.054 81.4065 121.824C81.4065 121.788 81.4347 121.74 81.5353 121.728H81.5716Z" fill="#407BFF"/>
<path d="M77.4728 121.571C77.4823 121.559 77.4884 121.545 77.4906 121.53C77.4927 121.515 77.4908 121.5 77.4851 121.486C77.4793 121.472 77.4699 121.459 77.4578 121.45C77.4458 121.441 77.4315 121.435 77.4165 121.434C77.2514 121.434 75.806 121.365 75.4759 121.72V121.744C75.4486 121.779 75.4309 121.82 75.4245 121.864C75.4181 121.908 75.4234 121.952 75.4396 121.993C75.4611 122.063 75.4991 122.125 75.5503 122.177C75.6015 122.228 75.6644 122.266 75.7335 122.287C76.2006 122.432 77.0259 121.905 77.4769 121.579L77.4728 121.571ZM75.5966 121.824C75.7778 121.631 76.575 121.579 77.1709 121.587C76.5468 122.014 76.0274 122.215 75.7657 122.134C75.7201 122.121 75.6786 122.096 75.6449 122.062C75.6112 122.028 75.5863 121.987 75.5725 121.941C75.5644 121.926 75.5601 121.908 75.5601 121.891C75.5601 121.873 75.5644 121.856 75.5725 121.84L75.5966 121.824Z" fill="#407BFF"/>
<path d="M77.4729 121.571C77.479 121.558 77.4821 121.544 77.4821 121.53C77.4821 121.516 77.479 121.503 77.4729 121.49C77.4528 121.458 77.0018 120.685 76.4704 120.524C76.3941 120.501 76.314 120.495 76.2351 120.505C76.1561 120.514 76.08 120.54 76.0114 120.58C75.8181 120.693 75.806 120.826 75.8302 120.91C75.9349 121.285 76.9616 121.615 77.4044 121.611C77.4184 121.611 77.432 121.607 77.444 121.6C77.456 121.593 77.4659 121.583 77.4729 121.571ZM76.0275 120.765C76.0502 120.743 76.076 120.724 76.104 120.709C76.1537 120.677 76.2097 120.657 76.2682 120.649C76.3266 120.642 76.386 120.647 76.4422 120.665C76.7925 120.757 77.1186 121.208 77.2676 121.43C76.7884 121.377 76.0597 121.083 75.9993 120.858C75.9942 120.841 75.9941 120.823 75.9991 120.805C76.0041 120.788 76.014 120.773 76.0275 120.761V120.765Z" fill="#407BFF"/>
<path d="M81.9058 18.1738C81.5032 20.1869 80.6335 24.5392 82.0306 25.8759C82.0306 25.8759 81.483 27.889 77.7668 27.889C73.6762 27.889 75.8141 25.8759 75.8141 25.8759C78.0447 25.3445 77.9883 23.6857 77.5977 22.1316L81.9058 18.1738Z" fill="#7F3E3B"/>
<path d="M75.0934 13.4552C75.1161 13.4589 75.1392 13.4589 75.1619 13.4552C75.181 13.4458 75.1981 13.4327 75.2121 13.4166C75.2261 13.4005 75.2368 13.3819 75.2435 13.3616C75.2503 13.3414 75.253 13.32 75.2514 13.2988C75.2498 13.2775 75.244 13.2568 75.2344 13.2378C75.1261 13.0081 74.9643 12.8078 74.7625 12.6537C74.5607 12.4995 74.3249 12.3961 74.0748 12.352C74.0329 12.3485 73.9912 12.3611 73.9583 12.3873C73.9254 12.4135 73.9037 12.4513 73.8977 12.4929C73.8931 12.5351 73.9054 12.5773 73.9317 12.6104C73.9581 12.6436 73.9965 12.665 74.0386 12.6701C74.236 12.708 74.4215 12.7924 74.5797 12.9163C74.738 13.0403 74.8644 13.2002 74.9485 13.3827C74.9641 13.4065 74.9857 13.4258 75.0112 13.4385C75.0366 13.4512 75.065 13.457 75.0934 13.4552Z" fill="#263238"/>
<path d="M73.8734 15.2227C73.5565 15.8104 73.161 16.3522 72.6978 16.8331C72.8232 16.9479 72.972 17.0339 73.134 17.0854C73.296 17.1368 73.4672 17.1524 73.6359 17.1311L73.8734 15.2227Z" fill="#630F0F"/>
<path d="M74.1754 14.7677C74.1432 15.0375 73.9701 15.2388 73.7969 15.2186C73.6238 15.1985 73.503 14.961 73.5352 14.6912C73.5674 14.4215 73.7406 14.2201 73.9379 14.2403C74.1351 14.2604 74.2036 14.498 74.1754 14.7677Z" fill="#263238"/>
<path d="M73.9903 14.2644L73.3702 14.0148C73.3702 14.0148 73.6319 14.5462 73.9903 14.2644Z" fill="#263238"/>
<path d="M81.028 120.806L77.7426 121.571L75.7456 114.017L79.031 113.252L81.028 120.806Z" fill="#7F3E3B"/>
<path d="M86.0688 123.012H82.6989L82.9606 115.205H86.3345L86.0688 123.012Z" fill="#7F3E3B"/>
<path d="M82.4291 122.621H86.2178C86.2834 122.621 86.3471 122.644 86.3968 122.687C86.4464 122.73 86.4787 122.79 86.4875 122.855L86.9183 125.85C86.9268 125.926 86.9192 126.003 86.896 126.076C86.8727 126.148 86.8343 126.215 86.7833 126.272C86.7324 126.328 86.67 126.374 86.6002 126.404C86.5305 126.435 86.455 126.451 86.3788 126.45C85.0582 126.43 84.4221 126.35 82.7552 126.35C81.7285 126.35 80.2308 126.458 78.8176 126.458C77.4044 126.458 77.3239 125.057 77.9157 124.933C80.5569 124.361 80.9756 123.58 81.8654 122.831C82.0226 122.697 82.2224 122.622 82.4291 122.621Z" fill="#263238"/>
<path d="M77.4528 121.067L80.8952 119.485C80.9536 119.457 81.0202 119.452 81.0825 119.469C81.1448 119.487 81.1984 119.527 81.2334 119.582L82.8801 122.126C82.9185 122.192 82.9428 122.265 82.9514 122.34C82.96 122.416 82.9527 122.492 82.9299 122.564C82.9071 122.637 82.8694 122.704 82.8193 122.761C82.7691 122.818 82.7075 122.864 82.6385 122.895C81.4306 123.427 80.8186 123.624 79.3048 124.321C78.3747 124.747 76.4865 125.73 75.2061 126.334C73.9258 126.938 73.2655 125.685 73.7487 125.323C75.9107 123.713 76.5307 122.557 77.026 121.506C77.1097 121.313 77.2616 121.157 77.4528 121.067Z" fill="#263238"/>
<path opacity="0.2" d="M75.7456 114.017L76.8166 118.068L80.0617 117.146L79.035 113.252L75.7456 114.017Z" fill="black"/>
<path opacity="0.2" d="M86.3346 115.205H82.9606L82.8278 119.231H86.2017L86.3346 115.205Z" fill="black"/>
<path d="M87.8645 26.641C89.2656 26.951 90.7633 31.9878 90.7633 31.9878L86.8015 36.2032C86.8015 36.2032 83.5121 31.4684 84.1845 29.7291C84.8649 27.9132 86.1936 26.2786 87.8645 26.641Z" fill="#263238"/>
<path opacity="0.4" d="M85.6259 29.8498C84.9173 29.2016 84.4382 29.3949 84.1121 29.9102C83.79 31.408 85.6984 34.5444 86.4674 35.7321C86.8217 34.3149 87.2284 31.3275 85.6259 29.8498Z" fill="black"/>
<path d="M70.1129 26.7416C70.1129 26.7416 68.5025 27.3053 71.7234 47.0941H85.4125C85.183 41.5218 85.175 38.0834 87.8282 26.641C85.9101 26.2452 83.9656 25.9896 82.0104 25.876C79.9409 25.7269 77.8634 25.7269 75.7939 25.876C73.1406 26.1216 70.1129 26.7416 70.1129 26.7416Z" fill="#263238"/>
<path opacity="0.4" d="M69.9882 34.335C70.0767 35.2972 70.1935 36.3803 70.3465 37.6042C71.4698 36.5937 72.3878 33.719 72.0496 32.0441C71.2471 32.6954 70.5515 33.4684 69.9882 34.335Z" fill="black"/>
<path d="M71.4537 31.3274C70.7151 33.1866 69.8833 35.0074 68.9615 36.7829C68.0504 38.6226 66.9722 40.3746 65.7406 42.017L65.4829 42.3351L65.354 42.4921C65.3098 42.5444 65.2735 42.5927 65.2051 42.6652C64.9628 42.9296 64.6928 43.1671 64.3998 43.3738C63.8819 43.7323 63.3151 44.0143 62.7169 44.2113C61.6735 44.5445 60.5903 44.7368 59.4959 44.783C57.4465 44.8645 55.395 44.6818 53.3922 44.2395L53.6136 42.5484C54.5397 42.5484 55.51 42.5484 56.432 42.4719C57.358 42.4264 58.2804 42.3242 59.194 42.166C60.0425 42.0336 60.8723 41.8011 61.666 41.4735C61.9866 41.3365 62.2862 41.1549 62.5558 40.9339C62.6587 40.8477 62.7519 40.7505 62.8336 40.6441C62.8336 40.6441 62.882 40.5796 62.9142 40.5353L63.0068 40.4025L63.196 40.1368C64.2063 38.5762 65.1063 36.947 65.8895 35.261C66.6948 33.5499 67.5 31.7743 68.2368 30.027L71.4537 31.3274Z" fill="#803E3C"/>
<path d="M70.113 26.7416C68.4341 27.1442 66.3727 31.7502 66.3727 31.7502L69.8513 36.8635C69.8513 36.8635 74.4855 31.0295 73.9339 29.2499C73.3702 27.3939 72.1624 26.2424 70.113 26.7416Z" fill="#263238"/>
<path d="M54.58 42.8062L51.6771 41.4655L51.3872 44.3522C51.3872 44.3522 53.8029 45.0649 55.0108 44.3522L54.58 42.8062Z" fill="#7F3E3B"/>
<path d="M49.9417 41.1755L49.6639 43.3738L51.3872 44.3522L51.677 41.4654L49.9417 41.1755Z" fill="#7F3E3B"/>
<path d="M83.3633 14.965C82.7473 18.2544 82.558 19.6635 80.6738 21.1572C77.8554 23.4039 73.9299 21.9303 73.5514 18.5241C73.2052 15.4562 74.2681 10.5925 77.6783 9.66648C78.4295 9.45923 79.2212 9.44788 79.9781 9.6335C80.7349 9.81913 81.4316 10.1955 82.0016 10.7268C82.5717 11.2581 82.9961 11.9266 83.2345 12.6685C83.4729 13.4104 83.5172 14.201 83.3633 14.965Z" fill="#7F3E3B"/>
<path d="M76.1362 15.6574C75.947 17.3364 75.8745 21.6967 79.5625 21.8336C84.0759 21.9987 85.4287 18.1416 85.0261 16.5996C87.3774 14.6871 87.7156 11.3977 85.0744 8.88134C82.4332 6.36496 76.6194 7.77011 75.0089 10.2221C72.9676 13.2618 76.1362 15.6574 76.1362 15.6574Z" fill="#263238"/>
<path d="M80.6576 9.85975C80.4402 8.08822 80.6093 6.86829 82.2681 6.86829C83.9268 6.86829 86.1896 7.46819 87.019 9.16322C87.8484 10.8582 87.9168 13.5115 85.6017 13.2418C83.2867 12.972 80.9193 11.9775 80.6576 9.85975Z" fill="#407BFF"/>
<path d="M83.2264 9.43299C82.8238 7.32326 84.712 1.3806 89.2979 0.977976C91.4237 0.796797 92.4061 3.08368 91.311 3.46214C93.3241 3.43798 94.6125 6.0993 92.7363 6.49789C94.2179 7.44807 93.8515 9.39675 91.7378 10.355C90.1635 11.0797 83.7699 12.356 83.2264 9.43299Z" fill="#263238"/>
<path d="M88.1262 11.6997C86.6485 11.6997 85.1065 11.4823 84.1483 10.8421C83.8804 10.6806 83.6548 10.4576 83.4903 10.1915C83.3257 9.92548 83.2269 9.62404 83.2021 9.31219C83.2009 9.28571 83.2098 9.25977 83.227 9.2396C83.2442 9.21942 83.2684 9.20652 83.2947 9.20348C83.3081 9.2018 83.3216 9.20291 83.3345 9.20675C83.3474 9.21059 83.3593 9.21707 83.3695 9.22579C83.3797 9.2345 83.3881 9.24526 83.3939 9.25736C83.3997 9.26946 83.403 9.28265 83.4034 9.29609C83.4277 9.5775 83.518 9.84922 83.667 10.0892C83.816 10.3291 84.0195 10.5306 84.261 10.6771C86.0849 11.8849 90.3003 11.4823 91.6129 11.0797C92.7482 10.7093 93.5172 9.98859 93.6702 9.1592C93.7179 8.85484 93.6804 8.54322 93.5617 8.25893C93.443 7.97464 93.2478 7.7288 92.9979 7.54872C92.9882 7.53968 92.9806 7.52876 92.9753 7.51665C92.9701 7.50453 92.9674 7.49146 92.9674 7.47826C92.9674 7.46505 92.9701 7.45199 92.9753 7.43987C92.9806 7.42775 92.9882 7.41684 92.9979 7.4078C93.0167 7.38936 93.042 7.37903 93.0683 7.37903C93.0947 7.37903 93.12 7.38936 93.1388 7.4078C93.4198 7.61286 93.6383 7.89202 93.7699 8.2141C93.9014 8.53618 93.9408 8.88849 93.8836 9.23167C93.7186 10.1376 92.9012 10.9106 91.6934 11.3052C90.5279 11.5989 89.3277 11.7317 88.1262 11.6997Z" fill="#263238"/>
<path d="M75.1096 15.2227C74.7346 15.7486 74.58 16.4002 74.6788 17.0385C74.8116 17.884 75.633 17.9403 76.2288 17.4008C76.8247 16.8613 77.3441 15.887 76.9052 15.1864C76.8077 15.0351 76.6731 14.9112 76.5142 14.8267C76.3552 14.7421 76.1773 14.6996 75.9973 14.7032C75.8173 14.7068 75.6412 14.7565 75.4858 14.8474C75.3304 14.9383 75.2009 15.0675 75.1096 15.2227Z" fill="#7F3E3B"/>
<path d="M75.339 47.094C75.339 47.094 77.2957 70.2406 79.3289 83.2855C80.9676 93.822 82.264 118.45 82.264 118.45H86.862C86.862 118.45 88.4966 94.5588 87.6672 84.139C85.5615 57.7674 90.2601 55.6175 85.4246 47.098L75.339 47.094Z" fill="#407BFF"/>
<path opacity="0.4" d="M81.1287 55.843C79.3065 57.7555 77.8359 59.9744 76.7844 62.3977C77.3199 67.5995 77.956 73.3731 78.6324 78.43C81.4079 71.2446 82.2681 63.4611 81.1287 55.843Z" fill="black"/>
<path d="M72.122 46.9491C72.122 46.9491 67.8744 72.2296 67.2061 83.6237C68.8729 94.1603 75.6933 116.433 75.6933 116.433L79.8765 114.915C79.8765 114.915 77.5614 90.6293 75.0451 83.9821C80.7099 64.91 84.873 60.0866 83.6611 47.094C80.7582 47.094 72.122 46.9491 72.122 46.9491Z" fill="#407BFF"/>
<path d="M75.1337 117.544L80.7864 116.01L80.4643 113.756L74.413 115.394L75.1337 117.544Z" fill="#263238"/>
<path d="M81.6319 118.543H87.4901L87.796 116.49L81.5997 116.28L81.6319 118.543Z" fill="#263238"/>
<path d="M85.626 46.2888L86.242 47.5168C86.2903 47.6134 86.1776 47.71 86.0206 47.71H71.6551C71.5343 47.71 71.4296 47.6496 71.4216 47.5691L71.2968 46.3613C71.2968 46.2767 71.3974 46.2042 71.5303 46.2042H85.4005C85.4422 46.1985 85.4846 46.2033 85.5239 46.2181C85.5633 46.2328 85.5984 46.2571 85.626 46.2888Z" fill="#407BFF"/>
<path opacity="0.5" d="M85.626 46.2888L86.242 47.5168C86.2903 47.6134 86.1776 47.71 86.0206 47.71H71.6551C71.5343 47.71 71.4296 47.6496 71.4216 47.5691L71.2968 46.3613C71.2968 46.2767 71.3974 46.2042 71.5303 46.2042H85.4005C85.4422 46.1985 85.4846 46.2033 85.5239 46.2181C85.5633 46.2328 85.5984 46.2571 85.626 46.2888Z" fill="black"/>
<path d="M83.7618 47.8349H84.1322C84.2087 47.8349 84.265 47.7946 84.261 47.7503L84.0838 46.1398C84.0838 46.0915 84.0154 46.0553 83.9429 46.0553H83.5685C83.496 46.0553 83.4397 46.0915 83.4437 46.1398L83.6168 47.7503C83.6249 47.8027 83.6893 47.8349 83.7618 47.8349Z" fill="#407BFF"/>
<path d="M78.7774 36.1106C78.733 36.1099 78.6899 36.0951 78.6544 36.0683C78.619 36.0416 78.5929 36.0042 78.5801 35.9616C77.2676 31.106 74.5539 27.104 73.2374 26.5001C73.1351 26.4372 73.0122 26.417 72.8951 26.4437C72.8708 26.4565 72.8442 26.4642 72.8168 26.4663C72.7894 26.4684 72.7618 26.4649 72.7358 26.456C72.7098 26.447 72.686 26.4329 72.6656 26.4143C72.6453 26.3958 72.629 26.3734 72.6178 26.3483C72.6065 26.3232 72.6004 26.2961 72.6 26.2687C72.5996 26.2412 72.6048 26.2139 72.6153 26.1885C72.6258 26.1631 72.6415 26.1402 72.6612 26.121C72.6809 26.1019 72.7044 26.087 72.7301 26.0773C72.8401 26.0369 72.9577 26.021 73.0745 26.0307C73.1913 26.0405 73.3046 26.0756 73.4065 26.1337C74.7995 26.794 77.5535 30.7396 78.9304 35.7039C79.9168 35.7039 81.4387 35.5711 81.8091 35.5389C82.2681 34.9913 85.6421 30.7719 84.3819 26.1538C84.3746 26.1284 84.3725 26.1018 84.3757 26.0756C84.3788 26.0494 84.3872 26.0241 84.4004 26.0012C84.4135 25.9783 84.4311 25.9583 84.4522 25.9423C84.4732 25.9263 84.4972 25.9147 84.5228 25.9082C84.574 25.8946 84.6286 25.9018 84.6746 25.9282C84.7205 25.9546 84.7543 25.998 84.7684 26.0491C86.1735 31.1866 82.099 35.8207 82.0547 35.865C82.039 35.8845 82.0195 35.9007 81.9973 35.9124C81.9752 35.9242 81.9509 35.9314 81.9259 35.9334C81.9058 35.9334 79.8967 36.1106 78.7774 36.1106Z" fill="#407BFF"/>
<path d="M85.4487 38.9531C83.2545 34.8424 82.3566 34.5525 81.9661 33.2319C82.262 32.4934 82.6843 31.8122 83.2142 31.2188C82.9485 31.1423 82.3768 31.0295 82.0064 30.9611C82.0466 30.7799 82.0909 30.6028 82.1312 30.4296C81.7281 30.3845 81.3204 30.4036 80.9233 30.486V30.0834C80.4119 29.9721 79.8867 29.9382 79.3652 29.9827C79.4108 30.1733 79.4551 30.3666 79.498 30.5625C79.0954 30.639 78.4834 30.7638 78.1895 30.8484C78.7606 31.4952 79.1802 32.2614 79.4175 33.091C78.2338 35.1242 73.6359 48.1932 81.1166 49.1957C88.5972 50.1983 87.639 43.0679 85.4487 38.9531Z" fill="#407BFF"/>
<path opacity="0.4" d="M85.4487 38.9531C83.2545 34.8424 82.3566 34.5525 81.9661 33.2319C82.262 32.4934 82.6843 31.8122 83.2142 31.2188C82.9485 31.1423 82.3768 31.0295 82.0064 30.9611C82.0466 30.7799 82.0909 30.6028 82.1312 30.4296C81.7281 30.3845 81.3204 30.4036 80.9233 30.486V30.0834C80.4119 29.9721 79.8867 29.9382 79.3652 29.9827C79.4108 30.1733 79.4551 30.3666 79.498 30.5625C79.0954 30.639 78.4834 30.7638 78.1895 30.8484C78.7606 31.4952 79.1802 32.2614 79.4175 33.091C78.2338 35.1242 73.6359 48.1932 81.1166 49.1957C88.5972 50.1983 87.639 43.0679 85.4487 38.9531Z" fill="white"/>
<path d="M79.1115 32.7004C79.0649 32.9077 79.0446 33.1201 79.0511 33.3325C79.0511 33.4815 79.4537 33.5821 79.9006 33.6264C80.3475 33.6707 82.2237 33.7432 82.1634 33.5338C82.103 33.3245 82.256 33.0386 82.264 32.8614C82.2721 32.6843 81.5192 32.6762 80.8871 32.7004C80.2549 32.7246 79.2363 32.4749 79.1115 32.7004Z" fill="#407BFF"/>
<path d="M74.7592 47.8349H75.1296C75.2021 47.8349 75.2584 47.7946 75.2544 47.7503L75.0813 46.1398C75.0813 46.0915 75.0129 46.0553 74.9364 46.0553H74.578C74.5055 46.0553 74.4492 46.0915 74.4532 46.1398L74.6263 47.7503C74.6183 47.8027 74.6827 47.8349 74.7592 47.8349Z" fill="#407BFF"/>
</svg>
